# xmcd
#
# Track frame offsets: 
#        150
#        16098
#        27846
#        46344
#        71892
#        88290
#        111963
#        125361
#        141309
#        156057
#
# Disc length: 2404 seconds
#
# Revision: 4
# Processed by: cddbd v1.5.2PL0 Copyright (c) Steve Scherf et al.
# Submitted via: ExactAudioCopyFreeDBPlugin 1.0
#
DISCID=8609620a
DTITLE=Charlie Musselwhite - Delta Hardware
DYEAR=2006
DGENRE=Blues
TTITLE0=Church Is Out
TTITLE1=One Of These Mornings
TTITLE2=Sundown
TTITLE3=Black Water
TTITLE4=Clarksdale Boogie
TTITLE5=Just A Feeling
TTITLE6=Gone Too Long
TTITLE7=Invisible Ones
TTITLE8=Town To Town
TTITLE9=Blues For Yesterday
EXTD=
EXTT0=
EXTT1=
EXTT2=
EXTT3=
EXTT4=
EXTT5=
EXTT6=
EXTT7=
EXTT8=
EXTT9=
PLAYORDER=
